<svg width="114" height="27" viewBox="0 0 114 27" fill="none" xmlns="http://www.w3.org/2000/svg">
<g clip-path="url(#clip0_52_10)">
<path d="M59.3827 7.348H55.7087L53.0599 11.9619H51.6929V2.05054H48.1897V19.9081H51.6929V15.0379H53.0599L56.4777 19.9081H60.408L55.8796 13.4145L59.3827 7.348Z" fill="white"/>
<path d="M85.6996 13.2436C85.016 12.7309 84.1616 12.4746 83.3926 12.2183C83.1363 12.1328 82.88 12.0474 82.6236 11.9619C82.5382 11.9619 82.4527 11.8765 82.4527 11.8765C81.9401 11.7056 81.4274 11.5347 81.4274 11.0221C81.4274 10.7657 81.5983 10.5094 81.7692 10.2531C82.0255 10.0822 82.2819 9.99676 82.6236 9.99676C83.3072 9.91132 83.9053 10.1676 84.5034 10.5094L84.5888 10.5949L86.4686 8.45878L86.3831 8.37334C86.1268 8.20245 85.8705 7.94613 85.6141 7.86068C84.9306 7.51891 84.4179 7.34802 84.0762 7.26258C83.7344 7.17714 82.7945 7.00625 81.6838 7.26258C81.1711 7.34802 80.4021 7.51891 79.6331 8.11701C78.7787 8.80055 78.266 9.65498 78.1806 10.5949C78.1806 10.9366 78.0952 12.1328 78.7787 13.0727C79.4622 13.9271 80.573 14.3544 81.342 14.6107C81.4274 14.6107 81.4274 14.6107 81.5129 14.6961C81.5983 14.6961 81.6838 14.7816 81.8546 14.7816C83.1363 15.2088 83.4781 15.3797 83.649 15.7214C83.8198 15.9778 83.8198 16.1487 83.8198 16.1487C83.8198 16.7468 83.0508 17.0031 82.5382 17.174C81.8546 17.3449 81.0857 17.0885 80.4876 16.7468C80.0603 16.405 79.6331 15.9778 79.2913 15.5506C79.1205 15.7214 77.1553 17.6866 77.1553 17.6866L77.2407 17.7721C77.9243 18.6265 79.1205 19.7373 80.9148 20.079C81.1711 20.1645 81.5129 20.1645 81.9401 20.1645C82.0255 20.1645 82.1964 20.1645 82.2819 20.1645C83.1363 20.1645 84.4179 19.9936 85.5287 19.1392C85.8705 18.8828 86.554 18.3702 86.8958 17.3449C87.2376 16.405 87.1521 15.2942 86.554 14.3544C86.4686 13.9271 86.1268 13.5854 85.6996 13.2436Z" fill="white"/>
<path d="M96.9778 13.2436C96.2942 12.7309 95.4398 12.4746 94.6708 12.2183C94.4145 12.1328 94.1581 12.0474 93.9018 11.9619C93.8164 11.9619 93.7309 11.8765 93.7309 11.8765C93.2183 11.7056 92.7056 11.5347 92.7056 11.0221C92.7056 10.7657 92.8765 10.5094 93.0474 10.2531C93.3037 10.0822 93.56 9.99676 93.9018 9.99676C94.5854 9.91132 95.1835 10.1676 95.7816 10.5094L95.867 10.5949L97.7467 8.45878L97.6613 8.37334C97.405 8.20245 97.1486 7.94613 96.8923 7.86068C96.2088 7.51891 95.6961 7.34802 95.3543 7.26258C95.0126 7.17714 94.0727 7.00625 92.9619 7.26258C92.4493 7.34802 91.6803 7.51891 90.9113 8.11701C90.0569 8.80055 89.5442 9.65498 89.4588 10.5949C89.4588 10.9366 89.3733 12.1328 90.0569 13.0727C90.7404 13.9271 91.8512 14.3544 92.6202 14.6107C92.7056 14.6107 92.7056 14.6107 92.7911 14.6961C92.8765 14.6961 92.9619 14.7816 93.1328 14.7816C94.4145 15.2088 94.7562 15.3797 94.9271 15.7214C95.098 15.9778 95.098 16.1487 95.098 16.1487C95.098 16.7468 94.329 17.0031 93.8164 17.174C93.1328 17.3449 92.3638 17.0885 91.7657 16.7468C91.3385 16.405 90.9113 15.9778 90.5695 15.5506C90.3986 15.7214 88.4333 17.6866 88.4333 17.6866L88.5189 17.7721C89.2024 18.6265 90.3986 19.7373 92.193 20.079C92.4493 20.1645 92.7911 20.1645 93.2183 20.1645C93.3037 20.1645 93.4746 20.1645 93.56 20.1645C94.4145 20.1645 95.6961 19.9936 96.8069 19.1392C97.1486 18.8828 97.8322 18.3702 98.174 17.3449C98.5157 16.405 98.4303 15.2942 97.8322 14.3544C97.7467 13.9271 97.405 13.5854 96.9778 13.2436Z" fill="white"/>
<path d="M70.8323 7.34811V8.54432H70.6614C69.5507 7.519 68.3544 7.00635 67.0728 7.00635C65.3639 7.00635 63.7405 7.68989 62.6298 8.88609C61.519 10.0823 60.9209 11.7057 60.9209 13.5C60.9209 15.3798 61.519 17.0032 62.6298 18.1994C63.7405 19.3956 65.2785 20.0791 66.9874 20.0791C68.269 20.0791 69.5507 19.5665 70.6614 18.6266H70.8323V19.7374H74.4209V7.17723H70.8323V7.34811ZM71.0032 13.6709C71.0032 14.7817 70.6614 15.7215 70.0633 16.4905C69.4652 17.1741 68.6108 17.5158 67.5855 17.5158C66.6456 17.5158 65.8766 17.1741 65.1931 16.4051C64.5949 15.7215 64.2532 14.7817 64.2532 13.5855C64.2532 12.4747 64.5949 11.6203 65.1931 10.8513C65.7912 10.1677 66.6456 9.74052 67.5855 9.74052C68.6108 9.74052 69.3798 10.0823 70.0633 10.7658C70.6614 11.6203 71.0032 12.5601 71.0032 13.6709Z" fill="white"/>
<path d="M110.222 7.34811V8.54432H110.051C108.94 7.519 107.744 7.00635 106.462 7.00635C104.753 7.00635 103.13 7.68989 102.019 8.88609C100.908 10.0823 100.31 11.7057 100.31 13.5C100.31 15.3798 100.908 17.0032 102.019 18.1994C103.13 19.3956 104.668 20.0791 106.377 20.0791C107.658 20.0791 108.94 19.5665 110.051 18.6266H110.222V19.7374H113.81V7.17723H110.222V7.34811ZM110.393 13.6709C110.393 14.7817 110.051 15.7215 109.453 16.4905C108.855 17.1741 108 17.5158 106.975 17.5158C106.035 17.5158 105.266 17.1741 104.582 16.4051C103.984 15.7215 103.643 14.7817 103.643 13.5855C103.643 12.4747 103.984 11.6203 104.582 10.8513C105.181 10.1677 106.035 9.74052 106.975 9.74052C108 9.74052 108.769 10.0823 109.453 10.7658C110.051 11.6203 110.393 12.5601 110.393 13.6709Z" fill="white"/>
<path d="M24.4365 0C16.9175 0 10.9365 6.06646 10.9365 13.5C10.9365 21.019 17.0029 27 24.4365 27C31.87 27 37.9365 20.9335 37.9365 13.5C38.0219 6.06646 31.87 0 24.4365 0ZM24.4365 18.5411C21.7023 18.5411 19.3953 16.2342 19.3953 13.5C19.3953 10.7658 21.7023 8.45886 24.4365 8.45886C27.1707 8.45886 29.4776 10.7658 29.4776 13.5C29.4776 16.2342 27.2561 18.5411 24.4365 18.5411Z" fill="white"/>
<path d="M10.9367 3.93036V23.5823H6.1519L0 3.93036H10.9367Z" fill="white"/>
</g>
<defs>
<clipPath id="clip0_52_10">
<rect width="114" height="27" fill="white"/>
</clipPath>
</defs>
</svg>
