<svg width="130" height="98" viewBox="0 0 130 98" fill="none" xmlns="http://www.w3.org/2000/svg">
<path d="M0 68.6C0 84.8312 13.1016 98 29.25 98H104C118.361 98 130 86.3012 130 71.8667C130 59.2287 121.062 48.6733 109.2 46.2642C110.033 44.0796 110.5 41.6908 110.5 39.2C110.5 28.3792 101.766 19.6 91 19.6C86.9984 19.6 83.2609 20.825 80.1734 22.9075C73.775 8.55458 63.2531 0 52 0C34.0437 0 19.5 14.6183 19.5 32.6667C19.5 33.2179 19.5203 33.7692 19.5406 34.3204C8.16562 40.1188 0 53.9 0 68.6Z" fill="white"/>
</svg>
