<svg width="162" height="27" viewBox="0 0 162 27" fill="none" xmlns="http://www.w3.org/2000/svg">
<g clip-path="url(#clip0_56_2)">
<path d="M47.58 10.58H51.68L52.42 15.14V22H48.34V14.52L47.58 10.58ZM56.36 10.24C57.4133 10.24 58.3067 10.46 59.04 10.9C59.7733 11.34 60.3333 11.96 60.72 12.76C61.1067 13.56 61.3 14.5067 61.3 15.6V22H57.22V16.2C57.22 15.3467 57.0267 14.6933 56.64 14.24C56.2533 13.7867 55.6933 13.56 54.96 13.56C54.44 13.56 53.9867 13.68 53.6 13.92C53.2267 14.16 52.9333 14.5 52.72 14.94C52.52 15.38 52.42 15.9 52.42 16.5L51.16 15.84C51.32 14.6267 51.6467 13.6067 52.14 12.78C52.6333 11.94 53.24 11.3067 53.96 10.88C54.6933 10.4533 55.4933 10.24 56.36 10.24ZM65.22 10.24C66.2733 10.24 67.1667 10.46 67.9 10.9C68.6467 11.34 69.2133 11.96 69.6 12.76C69.9867 13.56 70.18 14.5067 70.18 15.6V22H66.1V16.2C66.1 15.3467 65.9067 14.6933 65.52 14.24C65.1333 13.7867 64.5733 13.56 63.84 13.56C63.32 13.56 62.8667 13.68 62.48 13.92C62.1067 14.16 61.8133 14.5 61.6 14.94C61.4 15.38 61.3 15.9 61.3 16.5L60.04 15.84C60.2 14.6267 60.52 13.6067 61 12.78C61.4933 11.94 62.1067 11.3067 62.84 10.88C63.5733 10.4533 64.3667 10.24 65.22 10.24ZM78.9802 22.32C77.5935 22.32 76.3535 22.0667 75.2602 21.56C74.1802 21.0533 73.3268 20.3467 72.7002 19.44C72.0735 18.52 71.7602 17.4533 71.7602 16.24C71.7602 15.0533 72.0602 14.0133 72.6602 13.12C73.2602 12.2133 74.0802 11.5067 75.1202 11C76.1735 10.4933 77.3602 10.24 78.6802 10.24C80.0535 10.24 81.2202 10.54 82.1802 11.14C83.1535 11.7267 83.9002 12.56 84.4202 13.64C84.9535 14.72 85.2202 15.9933 85.2202 17.46H75.0602V15H82.9202L81.5802 15.86C81.5268 15.2733 81.3802 14.78 81.1402 14.38C80.9002 13.9667 80.5802 13.6533 80.1802 13.44C79.7935 13.2267 79.3268 13.12 78.7802 13.12C78.1802 13.12 77.6668 13.24 77.2402 13.48C76.8135 13.72 76.4802 14.0533 76.2402 14.48C76.0002 14.8933 75.8802 15.38 75.8802 15.94C75.8802 16.66 76.0402 17.2733 76.3602 17.78C76.6935 18.2733 77.1735 18.6533 77.8002 18.92C78.4402 19.1867 79.2202 19.32 80.1402 19.32C80.9802 19.32 81.8135 19.2133 82.6402 19C83.4802 18.7733 84.2402 18.46 84.9202 18.06V20.66C84.1335 21.1933 83.2335 21.6067 82.2202 21.9C81.2202 22.18 80.1402 22.32 78.9802 22.32ZM86.9677 6.6H91.0677V22H86.9677V6.6ZM100.115 22.32C98.6486 22.32 97.3686 22.0733 96.2753 21.58C95.182 21.0733 94.3286 20.3667 93.7153 19.46C93.102 18.54 92.7953 17.4867 92.7953 16.3C92.7953 15.0867 93.102 14.0267 93.7153 13.12C94.3286 12.2133 95.182 11.5067 96.2753 11C97.3686 10.4933 98.6486 10.24 100.115 10.24C101.569 10.24 102.842 10.4933 103.935 11C105.042 11.5067 105.902 12.2133 106.515 13.12C107.129 14.0267 107.435 15.0867 107.435 16.3C107.435 17.4867 107.129 18.54 106.515 19.46C105.902 20.3667 105.042 21.0733 103.935 21.58C102.842 22.0733 101.569 22.32 100.115 22.32ZM100.115 19.3C100.782 19.3 101.349 19.18 101.815 18.94C102.295 18.7 102.662 18.3533 102.915 17.9C103.169 17.4467 103.295 16.9133 103.295 16.3C103.295 15.66 103.169 15.12 102.915 14.68C102.662 14.2267 102.295 13.88 101.815 13.64C101.349 13.4 100.782 13.28 100.115 13.28C99.4486 13.28 98.8753 13.4 98.3953 13.64C97.9153 13.88 97.5486 14.2267 97.2953 14.68C97.042 15.12 96.9153 15.6533 96.9153 16.28C96.9153 16.9067 97.042 17.4467 97.2953 17.9C97.5486 18.3533 97.9153 18.7 98.3953 18.94C98.8753 19.18 99.4486 19.3 100.115 19.3ZM119.555 22L119.015 17.72L119.715 16.32L119.035 14.56L119.995 6.6H124.235L123.055 15.98L123.775 22H119.555ZM120.435 16.3C120.248 17.5 119.875 18.5533 119.315 19.46C118.768 20.3667 118.068 21.0733 117.215 21.58C116.375 22.0733 115.415 22.32 114.335 22.32C113.215 22.32 112.228 22.0733 111.375 21.58C110.535 21.0733 109.875 20.3667 109.395 19.46C108.915 18.54 108.675 17.4867 108.675 16.3C108.675 15.0867 108.915 14.0267 109.395 13.12C109.875 12.2133 110.535 11.5067 111.375 11C112.228 10.4933 113.215 10.24 114.335 10.24C115.415 10.24 116.375 10.4933 117.215 11C118.068 11.4933 118.775 12.1933 119.335 13.1C119.895 13.9933 120.262 15.06 120.435 16.3ZM112.815 16.3C112.815 16.86 112.928 17.36 113.155 17.8C113.395 18.24 113.722 18.5867 114.135 18.84C114.548 19.08 115.022 19.2 115.555 19.2C116.115 19.2 116.642 19.08 117.135 18.84C117.628 18.5867 118.062 18.24 118.435 17.8C118.808 17.36 119.088 16.86 119.275 16.3C119.088 15.7267 118.808 15.22 118.435 14.78C118.062 14.34 117.628 13.9933 117.135 13.74C116.642 13.4867 116.115 13.36 115.555 13.36C115.022 13.36 114.548 13.4867 114.135 13.74C113.722 13.9933 113.395 14.34 113.155 14.78C112.928 15.22 112.815 15.7267 112.815 16.3ZM125.718 10.4L127.778 10.8L129.818 10.4V22H125.718V10.4ZM127.758 9.46C127.051 9.46 126.478 9.28667 126.038 8.94C125.598 8.58 125.378 8.09333 125.378 7.48C125.378 6.88 125.598 6.4 126.038 6.04C126.478 5.68 127.051 5.5 127.758 5.5C128.491 5.5 129.071 5.68 129.498 6.04C129.938 6.4 130.158 6.88 130.158 7.48C130.158 8.09333 129.938 8.58 129.498 8.94C129.071 9.28667 128.491 9.46 127.758 9.46ZM145.685 17.18C145.579 18.2067 145.205 19.1067 144.565 19.88C143.925 20.6533 143.092 21.2533 142.065 21.68C141.052 22.1067 139.912 22.32 138.645 22.32C137.245 22.32 136.012 22.0667 134.945 21.56C133.879 21.0533 133.045 20.3467 132.445 19.44C131.845 18.5333 131.545 17.4867 131.545 16.3C131.545 15.1 131.845 14.0467 132.445 13.14C133.045 12.2333 133.879 11.5267 134.945 11.02C136.012 10.5 137.245 10.24 138.645 10.24C139.912 10.24 141.052 10.46 142.065 10.9C143.092 11.3267 143.925 11.9267 144.565 12.7C145.205 13.46 145.579 14.36 145.685 15.4H141.625C141.479 14.72 141.139 14.2 140.605 13.84C140.072 13.4667 139.419 13.28 138.645 13.28C138.045 13.28 137.519 13.4 137.065 13.64C136.625 13.8667 136.279 14.2067 136.025 14.66C135.785 15.1 135.665 15.6467 135.665 16.3C135.665 16.94 135.785 17.4867 136.025 17.94C136.279 18.38 136.625 18.72 137.065 18.96C137.519 19.1867 138.045 19.3 138.645 19.3C139.419 19.3 140.072 19.1067 140.605 18.72C141.152 18.3333 141.492 17.82 141.625 17.18H145.685ZM154.1 22.32C152.633 22.32 151.353 22.0733 150.26 21.58C149.166 21.0733 148.313 20.3667 147.7 19.46C147.086 18.54 146.78 17.4867 146.78 16.3C146.78 15.0867 147.086 14.0267 147.7 13.12C148.313 12.2133 149.166 11.5067 150.26 11C151.353 10.4933 152.633 10.24 154.1 10.24C155.553 10.24 156.826 10.4933 157.92 11C159.026 11.5067 159.886 12.2133 160.5 13.12C161.113 14.0267 161.42 15.0867 161.42 16.3C161.42 17.4867 161.113 18.54 160.5 19.46C159.886 20.3667 159.026 21.0733 157.92 21.58C156.826 22.0733 155.553 22.32 154.1 22.32ZM154.1 19.3C154.766 19.3 155.333 19.18 155.8 18.94C156.28 18.7 156.646 18.3533 156.9 17.9C157.153 17.4467 157.28 16.9133 157.28 16.3C157.28 15.66 157.153 15.12 156.9 14.68C156.646 14.2267 156.28 13.88 155.8 13.64C155.333 13.4 154.766 13.28 154.1 13.28C153.433 13.28 152.86 13.4 152.38 13.64C151.9 13.88 151.533 14.2267 151.28 14.68C151.026 15.12 150.9 15.6533 150.9 16.28C150.9 16.9067 151.026 17.4467 151.28 17.9C151.533 18.3533 151.9 18.7 152.38 18.94C152.86 19.18 153.433 19.3 154.1 19.3Z" fill="white"/>
<path d="M2 17.5C2 21.6406 5.32578 25 9.425 25H28.4C32.0455 25 35 22.0156 35 18.3333C35 15.1094 32.7312 12.4167 29.72 11.8021C29.9314 11.2448 30.05 10.6354 30.05 10C30.05 7.23958 27.8328 5 25.1 5C24.0842 5 23.1355 5.3125 22.3517 5.84375C20.7275 2.18229 18.0566 0 15.2 0C10.6419 0 6.95 3.72917 6.95 8.33333C6.95 8.47396 6.95516 8.61458 6.96031 8.75521C4.07281 10.2344 2 13.75 2 17.5Z" fill="white"/>
</g>
<defs>
<clipPath id="clip0_56_2">
<rect width="162" height="27" fill="white"/>
</clipPath>
</defs>
</svg>
